<svg xmlns="http://www.w3.org/2000/svg" xmlns:xlink="http://www.w3.org/1999/xlink" width="27.513" height="47.874" viewBox="0 0 27.513 47.874"><defs><linearGradient id="a" x1="-0.089" y1="-0.008" x2="1.497" y2="1.257" gradientUnits="objectBoundingBox"><stop offset="0" stop-color="#00875d"/><stop offset="0.168" stop-color="#00dba9"/><stop offset="0.357" stop-color="#00875d"/><stop offset="0.51" stop-color="#00dba9"/><stop offset="0.709" stop-color="#00875d"/><stop offset="0.857" stop-color="#00dba9"/><stop offset="1" stop-color="#00875d"/></linearGradient></defs><g transform="translate(0 0)"><path d="M753.958,516.545a18.075,18.075,0,0,0,.58,2.308,11.847,11.847,0,0,0,2.858,4.807,13.86,13.86,0,0,0,1.643,1.405,13.739,13.739,0,0,0,14.311,1.137,4.7,4.7,0,0,0,.481-1.932,6.611,6.611,0,0,0-1.4-4.074,8.223,8.223,0,0,1-10.54.064c-.2-.163-.39-.336-.574-.521a5.177,5.177,0,0,1-.523-.617,11.656,11.656,0,0,1-1.682-5.99c-.042-.591-.066-1.2-.079-1.83-.034-1.672.017-3.458.07-5.275,0-.043,0-.086,0-.13,5.561-.169,11.277-.318,13.824,2.229a8.164,8.164,0,0,1,1.847,2.837,15.435,15.435,0,0,1,5.8,5.861,13.744,13.744,0,0,0-3.723-12.618,10.734,10.734,0,0,0-1.558-1.286v-7.441h-7.344V500.5q-.816-.093-1.655-.145v-4.881h-7.344v4.877c-1.812.055-3.605.112-5.32.085C753.736,505.783,753.044,511.626,753.958,516.545Z" transform="translate(-753.43 -495.479)" fill="url(#a)"/><path d="M780.173,655.377a13.764,13.764,0,0,0-19.972-9.048,12.425,12.425,0,0,0,1.281,5.809,8.193,8.193,0,0,1,10.507-.036,8.267,8.267,0,0,1,1.114,1.119,8.174,8.174,0,0,1,1.865,5.2,5.123,5.123,0,0,1-.048.689,7.247,7.247,0,0,1-.817,2.393c-1.389,2.634-4.267,5.351-7.265,8.18l-.095.089c-2.883-2.713-5.814-5.489-7.265-8.162a15.378,15.378,0,0,1-3.619-2.691,12.764,12.764,0,0,1-2.511-3.584,13.8,13.8,0,0,0-.348,3.086c0,7.6,8.146,13.291,13.756,19.082,5.765-6,13.756-11.485,13.756-19.082A13.808,13.808,0,0,0,780.173,655.377Z" transform="translate(-753 -629.635)" fill="url(#a)"/></g></svg>